# xmcd CD database file
#
# Track frame offsets:
#	150
#	17845
#	34820
#
# Disc length: 662 seconds
#
# Revision: 4
# Processed by: cddbd v1.5PL3 Copyright (c) Steve Scherf et al.
# Submitted via: CDex 1.50Beta7
#
DISCID=1c029403
DTITLE=MO' SOME TONEBENDER - 未来は今
DYEAR=2002
DGENRE=Rock
TTITLE0=未来は今
TTITLE1=HigH(LIVE)
TTITLE2=4 AM
EXTD=YEAR: 2002
EXTT0=
EXTT1=
EXTT2=
PLAYORDER=
